<!DOCTYPE svg PUBLIC "-//W3C//DTD SVG 20010904//EN"
 "http://www.w3.org/TR/2001/REC-SVG-20010904/DTD/svg10.dtd">
<svg version="1.0" xmlns="http://www.w3.org/2000/svg"
 width="389.000000pt" height="96.000000pt" viewBox="0 0 389.000000 96.000000"
 preserveAspectRatio="xMidYMid meet">

<g transform="translate(0.000000,96.000000) scale(0.100000,-0.100000)"
fill="#000000" stroke="none">
<path d="M762 890 c0 -14 2 -19 5 -12 2 6 2 18 0 25 -3 6 -5 1 -5 -13z"/>
<path d="M780 890 c0 -11 5 -20 10 -20 6 0 10 9 10 20 0 11 -4 20 -10 20 -5 0
-10 -9 -10 -20z"/>
<path d="M530 830 c0 -5 -6 -7 -14 -4 -8 3 -16 2 -19 -3 -3 -4 10 -8 28 -8 26
0 31 3 23 13 -13 15 -18 15 -18 2z"/>
<path d="M464 761 c1 -27 3 -52 6 -54 3 -3 5 17 4 44 0 26 -2 51 -5 54 -3 2
-5 -17 -5 -44z"/>
<path d="M509 773 l-24 -28 27 24 c16 13 32 20 39 16 8 -5 10 -4 5 3 -11 18
-20 15 -47 -15z"/>
<path d="M1664 595 c-8 -20 4 -35 27 -35 14 0 19 7 19 25 0 18 -5 25 -20 25
-11 0 -23 -7 -26 -15z"/>
<path d="M2887 432 c-42 -94 -77 -175 -77 -181 0 -6 9 -11 20 -11 14 0 27 14
42 45 l22 45 94 0 93 0 20 -45 c14 -31 26 -45 39 -45 13 0 20 7 20 18 0 10
-33 90 -73 177 -101 220 -98 220 -200 -3z m173 -58 c0 -2 -33 -4 -74 -4 l-75
0 37 85 37 84 38 -80 c20 -45 37 -83 37 -85z"/>
<path d="M3287 432 c-42 -94 -77 -175 -77 -181 0 -6 9 -11 20 -11 14 0 27 14
42 45 l22 45 94 0 93 0 20 -45 c14 -31 26 -45 39 -45 13 0 20 7 20 18 0 10
-33 90 -73 177 -101 220 -98 220 -200 -3z m173 -58 c0 -2 -33 -4 -74 -4 l-75
0 37 85 37 84 38 -80 c20 -45 37 -83 37 -85z"/>
<path d="M3640 415 l0 -175 118 0 c65 0 121 3 125 6 3 3 3 12 0 20 -4 11 -28
14 -104 14 l-99 0 0 155 c0 148 -1 155 -20 155 -19 0 -20 -7 -20 -175z"/>
<path d="M1413 493 c-14 -9 -23 -11 -23 -4 0 6 -9 11 -20 11 -19 0 -20 -7 -20
-130 0 -123 1 -130 20 -130 18 0 20 7 20 80 0 112 21 150 84 150 45 0 61 -34
64 -136 4 -85 6 -94 23 -94 18 0 19 9 19 109 0 104 -1 109 -26 135 -21 21 -36
26 -73 25 -25 0 -56 -7 -68 -16z"/>
<path d="M2128 494 c-37 -20 -58 -63 -58 -119 0 -92 49 -145 133 -145 46 0 97
29 97 55 0 24 -20 27 -46 6 -49 -39 -112 -20 -132 39 l-11 30 100 0 99 0 0 30
c0 38 -23 84 -52 104 -28 20 -94 20 -130 0z m102 -34 c10 -5 23 -23 28 -40
l11 -30 -75 0 c-83 0 -94 12 -52 57 23 24 57 30 88 13z"/>
<path d="M2446 484 c-25 -26 -26 -26 -26 -5 0 14 -6 21 -20 21 -19 0 -20 -7
-20 -130 0 -123 1 -130 20 -130 18 0 20 7 21 63 0 93 16 128 67 152 26 12 42
26 42 37 0 28 -52 23 -84 -8z"/>
<path d="M2593 488 c-28 -30 -30 -79 -4 -102 10 -9 41 -25 67 -35 57 -22 74
-42 55 -65 -17 -20 -68 -20 -101 -1 -35 20 -50 18 -50 -5 0 -49 138 -70 178
-27 27 29 30 87 5 109 -10 8 -38 23 -63 32 -62 24 -72 34 -59 57 11 22 54 25
94 7 20 -9 28 -9 37 0 22 22 -16 45 -79 50 -51 3 -61 1 -80 -20z"/>
<path d="M1040 391 c0 -101 2 -110 25 -135 19 -21 33 -26 70 -26 25 0 57 7 70
16 15 10 25 12 25 5 0 -6 9 -11 20 -11 19 0 20 7 20 130 0 123 -1 130 -20 130
-18 0 -20 -7 -20 -80 0 -112 -21 -150 -84 -150 -45 0 -61 34 -64 136 -4 85 -6
94 -23 94 -18 0 -19 -9 -19 -109z"/>
<path d="M1670 370 c0 -123 1 -130 20 -130 19 0 20 7 20 130 0 123 -1 130 -20
130 -19 0 -20 -7 -20 -130z"/>
<path d="M1780 488 c0 -7 23 -68 52 -135 70 -165 77 -165 147 -5 56 127 61
152 32 152 -14 0 -27 -23 -56 -92 -21 -51 -41 -97 -45 -101 -4 -5 -25 36 -47
90 -31 78 -44 99 -61 101 -13 2 -22 -2 -22 -10z"/>
<path d="M315 330 c32 -108 81 -199 125 -230 39 -28 116 -33 112 -8 -2 12 2
16 12 12 8 -3 16 -2 19 3 3 4 -10 8 -28 8 -22 0 -31 -4 -28 -12 3 -7 10 -13
16 -13 6 0 7 -3 4 -6 -10 -10 -79 64 -72 76 3 5 1 10 -6 10 -7 0 0 15 17 32
23 26 24 29 4 12 -47 -40 -71 -44 -29 -6 l20 20 -30 -4 c-19 -2 -31 2 -35 12
-3 8 -1 12 4 9 6 -3 7 1 4 9 -3 9 -10 14 -14 11 -5 -3 -10 -2 -12 2 -2 5 -23
26 -47 48 -39 36 -43 38 -36 15z"/>
<path d="M495 189 c-4 -6 -4 -13 -1 -16 3 -3 2 -11 -4 -17 -6 -8 -2 -16 11
-24 12 -8 19 -9 19 -1 0 5 5 7 12 3 7 -4 8 -3 4 4 -4 6 -14 8 -23 5 -11 -4
-14 -2 -11 8 3 8 12 13 21 13 9 -1 14 3 11 8 -3 5 -13 7 -21 4 -11 -4 -13 -2
-9 9 6 17 0 20 -9 4z"/>
<path d="M3557 183 c-11 -11 -8 -183 3 -183 6 0 10 38 10 95 0 95 -1 101 -13
88z"/>
<path d="M3730 170 c0 -5 14 -10 30 -10 l30 0 0 -80 c0 -47 4 -80 10 -80 6 0
10 33 10 80 l0 80 29 0 c17 0 33 5 36 10 4 6 -22 10 -69 10 -44 0 -76 -4 -76
-10z"/>
<path d="M3632 124 c-28 -20 -31 -83 -4 -107 22 -20 71 -22 95 -4 28 21 32 68
7 100 -25 31 -63 36 -98 11z m69 -14 c35 -19 20 -90 -20 -90 -20 0 -51 30 -51
48 0 17 28 52 42 52 5 0 18 -5 29 -10z"/>
</g>
</svg>
